<?xml version="1.0" standalone="no"?>
<!DOCTYPE svg PUBLIC "-//W3C//DTD SVG 20010904//EN"
 "http://www.w3.org/TR/2001/REC-SVG-20010904/DTD/svg10.dtd">
<svg version="1.0" xmlns="http://www.w3.org/2000/svg"
 width="300.000000pt" height="150.000000pt" viewBox="0 0 300.000000 150.000000"
 preserveAspectRatio="xMidYMid meet">
<metadata>
Created by potrace 1.10, written by Peter Selinger 2001-2011
</metadata>
<g transform="translate(0.000000,150.000000) scale(0.100000,-0.100000)"
fill="#000000" stroke="none">
<path d="M90 1406 c0 -34 4 -46 15 -46 8 0 15 7 15 17 0 15 1 15 18 0 22 -20
36 -22 25 -5 -4 7 -7 26 -8 43 0 26 -4 30 -32 33 -33 3 -33 3 -33 -42z"/>
<path d="M317 1436 c-4 -9 -13 -13 -22 -10 -19 8 -45 -13 -45 -37 0 -21 37
-36 53 -20 8 8 5 11 -11 11 -13 0 -22 6 -22 15 0 9 9 15 24 15 18 0 25 -6 28
-22 3 -20 10 -23 51 -26 46 -2 47 -2 47 28 0 33 -24 50 -43 31 -8 -8 -6 -11 9
-11 15 0 13 -3 -10 -15 -15 -8 -30 -15 -32 -15 -9 0 -3 29 7 32 6 2 2 11 -9
21 -17 16 -20 16 -25 3z"/>
<path d="M672 1410 c2 -47 18 -66 18 -21 0 16 3 36 6 45 4 11 1 16 -10 16 -12
0 -15 -9 -14 -40z"/>
<path d="M880 1406 c0 -25 5 -46 10 -46 6 0 10 6 10 14 0 7 9 16 21 19 32 9
22 51 -13 55 -27 3 -28 2 -28 -42z"/>
<path d="M1350 1435 c0 -8 -5 -14 -11 -12 -16 3 -33 -28 -26 -47 4 -9 17 -16
32 -16 23 0 25 4 25 45 0 25 -4 45 -10 45 -5 0 -10 -7 -10 -15z"/>
<path d="M193 1423 c-7 -2 -13 -15 -13 -28 0 -25 31 -42 52 -29 9 6 5 10 -12
15 -24 7 -24 7 -2 8 25 1 28 11 10 29 -13 13 -16 13 -35 5z"/>
<path d="M440 1394 c0 -19 5 -34 10 -34 6 0 10 11 10 25 0 14 5 25 10 25 6 0
10 -11 10 -25 0 -14 5 -25 11 -25 6 0 9 14 7 32 -3 28 -7 33 -30 35 -26 2 -28
-1 -28 -33z"/>
<path d="M525 1420 c-2 -4 -4 -24 -3 -44 1 -34 4 -37 27 -34 23 3 26 8 29 44
3 39 1 42 -23 42 -14 0 -27 -4 -30 -8z"/>
<path d="M602 1398 c3 -28 7 -33 31 -35 25 -2 27 1 27 33 0 19 -4 34 -10 34
-5 0 -10 -11 -10 -25 0 -14 -4 -25 -10 -25 -5 0 -10 11 -10 25 0 14 -5 25 -11
25 -6 0 -9 -14 -7 -32z"/>
<path d="M715 1421 c-3 -5 5 -12 17 -14 l23 -4 -23 -2 c-34 -2 -25 -35 11 -38
24 -2 27 2 27 27 0 33 -39 55 -55 31z"/>
<path d="M789 1423 c-7 -19 0 -58 11 -61 9 -3 11 2 7 17 -3 14 0 24 9 28 21 8
17 19 -6 19 -11 0 -20 -2 -21 -3z"/>
<path d="M956 1413 c4 -10 8 -30 8 -45 1 -16 6 -28 13 -28 6 0 16 12 21 28 5
15 13 35 17 45 4 9 3 17 -3 17 -6 0 -14 -10 -18 -22 l-7 -23 -8 23 c-5 12 -13
22 -20 22 -7 0 -8 -6 -3 -17z"/>
<path d="M1030 1393 c0 -18 5 -33 10 -33 6 0 10 11 10 25 0 22 4 25 38 24 33
0 35 -1 14 -10 -30 -12 -23 -33 11 -36 24 -2 27 2 27 28 0 16 -3 30 -7 30 -5
1 -29 3 -55 4 l-48 2 0 -34z"/>
<path d="M1160 1394 c0 -19 5 -34 10 -34 6 0 10 11 10 25 0 14 5 25 10 25 6 0
10 -11 10 -25 0 -14 5 -25 10 -25 6 0 10 11 10 25 0 14 5 25 10 25 6 0 10 -11
10 -25 0 -14 5 -25 10 -25 12 0 13 40 2 55 -4 6 -26 10 -49 11 -42 1 -43 0
-43 -32z"/>
<path d="M1279 1426 c-5 -26 -1 -56 6 -53 11 3 13 47 3 53 -4 3 -8 3 -9 0z"/>
<path d="M527 1233 c-2 -10 -8 -25 -11 -33 -5 -13 1 -16 29 -16 28 0 34 3 29
16 -3 8 -9 23 -11 33 -3 9 -11 17 -18 17 -7 0 -15 -8 -18 -17z"/>
<path d="M2184 1225 c-8 -30 2 -75 17 -75 6 0 7 9 3 23 -9 27 -9 37 1 60 4 10
3 17 -4 17 -6 0 -13 -11 -17 -25z"/>
<path d="M2311 1227 c-6 -16 -16 -37 -21 -48 -8 -13 -7 -19 0 -19 13 0 43 67
37 83 -3 7 -10 -1 -16 -16z"/>
<path d="M2422 1225 c8 -19 8 -31 0 -50 -7 -16 -8 -25 -2 -25 18 0 30 48 20
75 -5 14 -14 25 -20 25 -6 0 -5 -9 2 -25z"/>
<path d="M2460 1209 c0 -24 4 -38 10 -34 6 3 10 22 10 41 0 19 -4 34 -10 34
-5 0 -10 -18 -10 -41z"/>
<path d="M2579 1245 c-3 -5 -2 -26 2 -45 4 -22 7 -27 8 -12 1 27 21 30 21 2 0
-11 5 -20 10 -20 19 0 10 42 -9 47 -11 3 -21 12 -23 22 -2 9 -6 12 -9 6z"/>
<path d="M1674 1208 c19 -44 31 -45 43 -3 6 19 7 35 3 35 -5 0 -12 -10 -16
-22 l-7 -23 -8 23 c-5 12 -13 22 -18 22 -6 0 -4 -14 3 -32z"/>
<path d="M2239 1238 c0 -2 -2 -18 -3 -35 -3 -27 0 -33 16 -33 14 0 18 5 14 16
-3 9 -6 24 -6 35 0 10 -4 19 -10 19 -5 0 -10 -1 -11 -2z"/>
<path d="M2350 1231 c0 -6 8 -7 18 -4 14 6 15 4 4 -9 -10 -13 -10 -17 0 -21 8
-4 7 -6 -4 -6 -20 -1 -25 -21 -5 -21 22 0 35 15 33 40 -1 18 -7 26 -23 28 -13
2 -23 -1 -23 -7z"/>
<path d="M590 1196 c0 -20 5 -36 10 -36 6 0 10 4 10 9 0 5 9 11 21 14 31 8 21
41 -14 45 -25 3 -27 1 -27 -32z"/>
<path d="M660 1205 c0 -20 5 -25 25 -25 20 0 25 5 25 25 0 20 -5 25 -25 25
-20 0 -25 -5 -25 -25z"/>
<path d="M729 1217 c7 -7 7 -15 1 -22 -7 -9 -2 -12 21 -13 23 0 28 2 20 12 -7
9 -7 16 1 24 8 8 2 10 -21 10 -22 -1 -29 -4 -22 -11z"/>
<path d="M1890 1198 c0 -34 7 -36 20 -5 l9 22 0 -22 c1 -13 5 -23 10 -23 5 0
12 10 14 23 l4 22 2 -22 c1 -31 21 -29 21 1 0 21 -6 24 -40 28 -38 3 -40 2
-40 -24z"/>
<path d="M1991 1217 c-16 -16 -14 -34 5 -41 27 -10 34 -7 34 18 0 27 -22 40
-39 23z"/>
<path d="M1734 1209 c-3 -6 1 -18 10 -27 15 -15 17 -15 32 0 19 19 11 38 -16
38 -10 0 -22 -5 -26 -11z"/>
<path d="M1832 1198 c2 -15 10 -23 23 -23 13 0 21 8 23 23 2 12 -1 22 -7 22
-6 0 -11 -7 -11 -15 0 -8 -5 -15 -11 -15 -6 0 -9 7 -5 15 3 8 1 15 -5 15 -6 0
-9 -10 -7 -22z"/>
<path d="M2073 1200 c-1 -16 4 -20 28 -20 22 0 29 5 29 20 0 15 -7 20 -28 20
-21 0 -28 -5 -29 -20z"/>
<path d="M2490 1208 c0 -15 13 -38 21 -38 5 0 9 8 9 18 1 16 1 16 11 -1 13
-22 29 -13 29 16 0 18 -2 19 -10 7 -5 -8 -10 -10 -10 -4 0 7 -11 11 -25 10
-14 0 -25 -4 -25 -8z"/>
<path d="M620 1136 c0 -8 -87 -167 -193 -353 -106 -186 -222 -389 -256 -451
-35 -62 -72 -117 -83 -123 -10 -6 -18 -17 -16 -26 3 -13 51 -15 391 -14 281 1
393 -1 403 -10 17 -14 44 -5 44 16 0 17 275 335 290 335 17 0 11 39 -8 49 -10
5 -53 48 -96 95 l-78 86 47 0 c38 0 46 -3 41 -15 -5 -13 -1 -13 27 1 17 9 34
18 35 20 4 3 -53 34 -62 34 -3 0 -3 -6 -1 -12 4 -10 -9 -12 -50 -10 l-55 4
-163 180 c-89 99 -166 186 -170 194 -11 18 -47 18 -47 0z m207 -213 c76 -85
139 -159 141 -163 2 -5 -6 -6 -17 -3 -12 3 -21 1 -21 -6 0 -6 15 -11 33 -11
28 -1 43 -13 112 -91 44 -50 82 -95 83 -100 2 -5 -73 -9 -175 -9 l-178 0 -70
272 c-84 325 -80 308 -61 285 8 -11 77 -89 153 -174z m-192 -103 l0 -280 -107
0 c-60 0 -108 2 -108 4 0 2 26 71 59 152 32 82 80 206 107 277 26 70 48 127
48 127 1 0 1 -126 1 -280z m145 -272 c0 -5 -29 -8 -65 -8 l-65 0 1 258 1 257
64 -250 c35 -137 64 -253 64 -257z m-288 236 c-48 -120 -93 -223 -99 -227 -7
-4 -13 -15 -13 -24 0 -9 -31 -50 -68 -92 -37 -42 -85 -97 -107 -123 -21 -26
-40 -46 -42 -44 -2 1 30 59 70 128 40 68 133 233 207 365 74 133 136 240 137
239 2 -1 -37 -101 -85 -222z m143 -281 c-2 -10 -6 -53 -9 -95 -4 -72 -3 -78
15 -78 24 0 36 27 20 43 -6 6 -11 42 -11 79 l0 68 70 0 c68 0 70 -1 76 -27 4
-16 22 -88 41 -162 19 -73 32 -135 30 -137 -2 -2 -171 -3 -374 -2 l-371 3 132
151 c72 83 140 155 151 161 11 6 68 11 127 12 96 1 106 -1 103 -16z m460 -70
c-43 -49 -105 -120 -139 -160 -33 -39 -62 -70 -64 -69 -1 2 -18 66 -38 142
-19 77 -37 147 -40 157 -5 16 8 17 176 17 l182 0 -77 -87z"/>
<path d="M570 705 c0 -19 4 -35 10 -35 5 0 7 6 4 14 -3 8 -1 17 5 21 7 3 11
-2 11 -14 0 -12 5 -21 10 -21 17 0 11 35 -10 53 -28 23 -30 22 -30 -18z"/>
<path d="M450 266 c0 -32 3 -36 25 -36 22 0 24 4 22 33 -2 24 -8 33 -25 35
-19 3 -22 -1 -22 -32z"/>
<path d="M524 272 c18 -8 18 -9 3 -15 -26 -10 -20 -27 9 -27 21 0 25 4 22 23
-2 15 -11 23 -28 24 -21 2 -22 1 -6 -5z"/>
<path d="M574 269 c-3 -6 -1 -15 6 -19 10 -6 9 -9 -1 -13 -8 -3 -4 -6 9 -6 17
-1 22 5 22 24 0 26 -23 35 -36 14z"/>
<path d="M624 266 c-8 -22 4 -36 29 -35 21 0 21 1 2 9 -18 8 -18 9 -2 9 10 1
17 7 15 14 -7 18 -37 21 -44 3z"/>
<path d="M1685 1035 c0 -21 5 -35 13 -35 7 0 12 14 12 35 0 21 -5 35 -12 35
-8 0 -13 -14 -13 -35z"/>
<path d="M1850 1035 c0 -30 3 -35 24 -35 25 0 36 15 29 38 -3 6 -11 12 -19 12
-8 0 -14 5 -14 10 0 6 -4 10 -10 10 -5 0 -10 -16 -10 -35z"/>
<path d="M2110 1035 c0 -19 5 -35 10 -35 6 0 10 16 10 35 0 19 -4 35 -10 35
-5 0 -10 -16 -10 -35z"/>
<path d="M2370 1035 c0 -19 4 -35 10 -35 5 0 7 6 4 14 -3 8 -1 17 5 21 7 3 11
-2 11 -14 0 -12 5 -21 10 -21 17 0 11 35 -10 53 -28 23 -30 22 -30 -18z"/>
<path d="M2328 1055 c-11 -12 5 -55 21 -55 13 0 14 2 2 9 -12 7 -12 13 -3 24
15 18 -3 38 -20 22z"/>
<path d="M1928 1042 c11 -7 11 -10 -2 -15 -25 -10 -19 -27 10 -27 21 0 25 4
22 22 -2 14 -11 24 -23 26 -15 2 -16 1 -7 -6z"/>
<path d="M1977 1043 c-12 -12 -7 -23 11 -24 14 0 14 -2 -3 -8 -13 -5 0 -8 40
-8 43 0 53 2 35 7 -24 8 -24 8 -3 9 16 1 21 6 17 16 -8 19 -28 19 -44 1 -6 -8
-18 -12 -27 -9 -12 5 -12 7 -1 14 10 7 10 9 -3 9 -9 0 -19 -3 -22 -7z"/>
<path d="M2164 1041 c5 -7 1 -9 -9 -4 -13 4 -16 1 -13 -13 2 -12 13 -20 28
-21 23 -2 23 -2 5 6 -18 9 -18 10 -2 10 21 1 18 22 -3 29 -7 3 -10 0 -6 -7z"/>
<path d="M2200 1025 c0 -31 17 -33 23 -2 4 22 4 22 15 -3 l11 -25 0 28 c1 22
-3 27 -24 27 -20 0 -25 -5 -25 -25z"/>
<path d="M2266 1033 c-5 -11 -1 -22 9 -29 12 -9 13 -13 3 -17 -7 -3 -3 -6 10
-6 19 -1 22 4 22 34 0 28 -4 35 -19 35 -10 0 -22 -8 -25 -17z"/>
<path d="M1900 879 c0 -36 2 -40 23 -37 26 4 38 48 13 48 -9 0 -16 7 -16 15 0
8 -4 15 -10 15 -5 0 -10 -18 -10 -41z"/>
<path d="M2310 906 c0 -9 -6 -16 -14 -16 -19 0 -28 -14 -20 -34 3 -9 15 -14
27 -12 15 2 20 10 21 35 1 18 -2 35 -6 38 -5 2 -8 -3 -8 -11z"/>
<path d="M2382 880 c0 -25 3 -35 5 -22 5 27 23 29 23 2 0 -11 5 -20 10 -20 6
0 10 11 10 25 0 14 -5 25 -11 25 -7 0 -18 8 -25 18 -12 15 -13 11 -12 -28z"/>
<path d="M2342 880 c2 -18 9 -35 16 -38 11 -3 12 0 3 16 -8 15 -8 21 0 24 7 2
5 9 -6 18 -15 12 -16 11 -13 -20z"/>
<path d="M1670 896 c0 -3 5 -17 11 -33 10 -27 11 -27 25 -9 12 17 14 18 14 3
0 -25 19 -21 29 6 10 26 2 45 -10 26 -8 -12 -10 -12 -18 0 -7 11 -11 10 -20
-5 -9 -17 -10 -17 -11 -1 0 9 -4 17 -10 17 -5 0 -10 -2 -10 -4z"/>
<path d="M1967 893 c-4 -3 1 -12 11 -20 16 -12 16 -13 -2 -6 -13 4 -17 2 -14
-8 7 -23 48 -24 48 -2 0 29 -27 52 -43 36z"/>
<path d="M2030 890 c-12 -7 -12 -11 1 -26 9 -11 9 -15 2 -10 -7 4 -13 2 -13
-3 0 -15 27 -14 36 1 4 6 2 14 -5 16 -10 3 -11 6 -1 12 7 4 8 10 3 13 -5 3
-15 2 -23 -3z"/>
<path d="M2081 890 c-20 -12 -8 -45 17 -48 18 -3 22 1 22 21 0 27 -19 40 -39
27z"/>
<path d="M2162 876 c3 -32 28 -49 28 -20 0 16 1 16 14 -2 14 -18 15 -18 24 6
11 27 6 42 -7 21 -6 -10 -10 -8 -15 5 -6 16 -8 16 -17 4 -8 -13 -10 -13 -19 0
-8 12 -10 8 -8 -14z"/>
<path d="M1797 870 c3 -13 14 -20 29 -20 17 0 24 6 24 20 0 15 -7 20 -29 20
-24 0 -28 -3 -24 -20z"/>
<path d="M1180 745 c0 -40 2 -41 30 -18 19 16 19 18 3 25 -17 6 -17 7 0 7 27
1 20 21 -8 21 -22 0 -25 -4 -25 -35z"/>
<path d="M1237 741 c-6 -24 0 -31 25 -31 13 0 18 7 18 25 0 31 -35 35 -43 6z"/>
<path d="M1300 745 c-15 -19 -4 -35 23 -34 17 1 18 2 5 6 -20 5 -23 18 -8 28
5 3 15 -3 22 -15 8 -12 23 -20 38 -19 l25 1 -25 8 c-24 8 -24 8 -2 9 12 1 22
6 22 11 0 17 -29 23 -45 10 -10 -9 -15 -9 -15 -1 0 16 -25 14 -40 -4z"/>
<path d="M1690 705 c0 -19 5 -35 11 -35 6 0 9 7 6 15 -4 8 -2 17 3 20 6 4 10
-3 10 -14 0 -12 5 -21 10 -21 17 0 11 35 -10 53 -28 23 -30 22 -30 -18z"/>
<path d="M1888 703 c5 -37 5 -37 15 -13 10 25 10 25 14 3 5 -29 23 -30 23 -2
0 12 -8 23 -20 26 -11 3 -17 9 -14 14 3 5 -1 9 -8 9 -10 0 -13 -10 -10 -37z"/>
<path d="M2100 705 c0 -39 16 -48 23 -12 l4 22 2 -22 c1 -27 21 -31 21 -5 0
15 -32 52 -45 52 -3 0 -5 -16 -5 -35z"/>
<path d="M2297 733 c-8 -14 -5 -63 4 -63 8 0 11 22 8 46 0 4 5 11 13 15 10 7
9 9 -4 9 -9 0 -19 -3 -21 -7z"/>
<path d="M2400 705 c0 -39 16 -48 23 -12 l4 22 2 -22 c1 -27 21 -31 21 -5 0
15 -32 52 -45 52 -3 0 -5 -16 -5 -35z"/>
<path d="M2930 730 c0 -5 -6 -10 -14 -10 -16 0 -29 -27 -20 -41 3 -5 16 -9 30
-9 21 0 24 5 24 35 0 19 -4 35 -10 35 -5 0 -10 -4 -10 -10z"/>
<path d="M2160 701 c0 -26 4 -31 23 -31 16 0 18 3 9 9 -8 4 -12 16 -10 26 2
10 -3 20 -9 22 -9 3 -13 -6 -13 -26z"/>
<path d="M2358 725 c-9 -10 4 -55 16 -55 14 0 14 52 0 57 -6 2 -13 1 -16 -2z"/>
<path d="M1957 714 c-4 -4 -7 -16 -7 -26 0 -13 7 -18 28 -17 24 0 25 1 7 9
-18 8 -18 9 -2 9 10 1 17 7 15 14 -5 14 -31 21 -41 11z"/>
<path d="M2047 713 c-14 -13 -7 -43 11 -44 15 0 14 -2 -3 -10 -18 -8 -18 -8 5
-6 20 2 26 8 28 35 3 26 0 32 -16 32 -10 0 -22 -3 -25 -7z"/>
<path d="M2237 714 c-4 -4 -7 -16 -7 -26 0 -13 7 -18 26 -18 21 0 25 4 22 22
-3 23 -27 35 -41 22z"/>
<path d="M2464 706 c-8 -22 4 -36 29 -35 21 0 21 1 2 9 -18 8 -18 9 -2 9 10 1
17 7 15 14 -7 18 -37 21 -44 3z"/>
<path d="M2550 686 c0 -20 5 -36 10 -36 6 0 10 5 10 10 0 6 7 10 16 10 25 0
13 44 -13 48 -20 3 -23 -1 -23 -32z"/>
<path d="M2614 704 c3 -9 6 -24 6 -35 0 -30 17 -22 29 12 13 39 13 39 2 39 -5
0 -12 -8 -14 -17 -4 -17 -5 -17 -6 0 0 9 -6 17 -12 17 -6 0 -8 -7 -5 -16z"/>
<path d="M2670 695 c0 -14 5 -25 10 -25 6 0 10 9 10 19 0 11 6 22 13 24 6 3 2
6 -10 6 -18 1 -23 -5 -23 -24z"/>
<path d="M2728 712 c11 -7 11 -10 -2 -15 -25 -10 -19 -27 10 -27 21 0 25 4 22
22 -2 14 -11 24 -23 26 -15 2 -16 1 -7 -6z"/>
<path d="M2770 694 c0 -30 17 -32 23 -1 l4 22 2 -22 c0 -13 5 -23 10 -23 5 0
11 10 14 23 4 22 4 22 15 -3 l11 -25 0 26 c1 24 -2 27 -39 27 -36 1 -40 -2
-40 -24z"/>
<path d="M1336 555 c5 -12 -3 -15 -45 -15 -30 0 -51 -4 -51 -11 0 -7 18 -10
50 -7 37 2 49 0 45 -9 -2 -7 -2 -13 1 -13 9 0 66 31 62 34 -1 2 -18 11 -35 20
-28 14 -32 14 -27 1z"/>
<path d="M1405 543 c4 -10 10 -26 12 -36 3 -10 10 -16 15 -15 14 5 39 68 27
68 -5 0 -13 -10 -18 -22 l-8 -23 -7 23 c-4 12 -12 22 -18 22 -6 0 -7 -7 -3
-17z"/>
<path d="M1580 551 c0 -6 -11 -11 -25 -11 -20 0 -25 -5 -25 -25 0 -14 5 -25
10 -25 6 0 10 9 10 20 0 11 7 20 15 20 8 0 15 -9 15 -20 0 -12 7 -20 16 -20
14 0 14 3 3 16 -10 12 -10 17 0 23 9 6 8 11 -4 21 -10 8 -15 9 -15 1z"/>
<path d="M1474 525 c-8 -20 4 -35 27 -35 14 0 19 7 19 25 0 18 -5 25 -20 25
-11 0 -23 -7 -26 -15z"/>
<path d="M1617 526 c-6 -16 11 -36 30 -36 7 0 13 11 13 25 0 18 -5 25 -19 25
-10 0 -21 -6 -24 -14z"/>
<path d="M1679 527 c7 -7 7 -15 1 -22 -7 -9 -1 -12 21 -13 22 0 29 2 21 10 -6
6 -8 16 -6 23 3 8 -4 13 -21 13 -19 0 -23 -4 -16 -11z"/>
<path d="M1241 473 c-27 -11 -31 -17 -20 -23 11 -7 7 -16 -21 -45 -18 -19 -28
-35 -21 -35 7 0 23 13 37 30 14 16 31 27 38 24 9 -3 16 6 20 27 3 18 5 33 4
34 -2 1 -18 -4 -37 -12z"/>
<path d="M1084 308 c3 -13 6 -29 6 -35 0 -7 7 -13 15 -13 8 0 15 9 15 21 0 11
-4 17 -10 14 -5 -3 -10 3 -10 14 0 12 -5 21 -11 21 -7 0 -9 -9 -5 -22z"/>
<path d="M1120 322 c0 -15 25 -62 33 -62 8 0 27 43 27 61 0 5 -4 9 -10 9 -5 0
-10 -7 -10 -15 0 -8 -4 -15 -10 -15 -5 0 -10 7 -10 15 0 8 -4 15 -10 15 -5 0
-10 -4 -10 -8z"/>
<path d="M1040 224 c-21 -25 -34 -33 -39 -25 -5 7 -12 -3 -19 -26 -6 -20 -10
-38 -9 -39 1 0 18 6 37 14 19 8 29 17 22 19 -8 3 -3 16 18 39 26 31 38 54 26
54 -2 0 -18 -16 -36 -36z"/>
<path d="M480 65 c0 -25 5 -45 10 -45 6 0 10 20 10 45 0 25 -4 45 -10 45 -5 0
-10 -20 -10 -45z"/>
<path d="M106 84 l-28 -16 26 -13 c14 -8 31 -17 38 -21 8 -5 9 -2 5 9 -6 15 9
17 158 17 103 0 165 4 165 10 0 6 -62 10 -166 10 -107 0 -163 3 -159 10 9 14
-5 12 -39 -6z"/>
<path d="M825 90 c4 -7 -50 -10 -154 -10 -101 0 -161 -4 -161 -10 0 -6 60 -10
161 -10 104 0 158 -3 154 -10 -8 -13 -4 -13 36 4 l33 14 -32 16 c-36 18 -46
20 -37 6z"/>
</g>
</svg>
